<svg width="385" height="240" viewBox="0 0 385 240" fill="none" xmlns="http://www.w3.org/2000/svg">
<path d="M294.319 231.566L294.444 231.453L294.317 231.342C289.664 227.3 286.842 220.916 287.582 214.709C288.322 208.502 292.906 202.805 298.831 201.492C304.756 200.178 311.512 203.819 313.31 209.763L313.603 209.732C314.606 198.113 315.76 186.05 321.743 176.195C327.159 167.276 336.536 160.898 346.692 159.757C356.848 158.617 367.541 162.926 373.873 171.166C380.205 179.407 381.755 191.389 377.322 200.845C374.055 207.814 368.032 213.008 361.701 217.245C341.336 230.756 316.929 236.284 292.935 232.829L294.319 231.566Z" fill="#E0E0E0" stroke="#797979" stroke-width="0.3"/>
<path d="M363.899 163.032C355.478 170.084 347.753 177.973 340.834 186.582C330.008 200.009 321.246 215.064 314.856 231.221C314.388 232.4 316.25 232.913 316.712 231.748C327.168 205.489 343.86 182.344 365.261 164.431C366.222 163.626 364.852 162.233 363.899 163.032Z" fill="white"/>
<mask id="path-3-inside-1_10_1830" fill="white">
<path d="M131.821 230.349C138.257 224.757 142.167 215.924 141.141 207.324C140.116 198.725 133.766 190.819 125.53 188.993C117.293 187.166 107.904 192.222 105.402 200.495C104.025 184.544 102.439 167.925 94.1914 154.342C86.7237 142.042 73.7894 133.242 59.7715 131.667C45.7537 130.093 30.9947 136.039 22.2523 147.416C13.5099 158.793 11.3693 175.332 17.4923 188.394C22.0028 198.016 30.3129 205.176 39.0198 211.002C66.7977 229.588 101.256 237.339 134.044 232.378"/>
</mask>
<path d="M131.821 230.349C138.257 224.757 142.167 215.924 141.141 207.324C140.116 198.725 133.766 190.819 125.53 188.993C117.293 187.166 107.904 192.222 105.402 200.495C104.025 184.544 102.439 167.925 94.1914 154.342C86.7237 142.042 73.7894 133.242 59.7715 131.667C45.7537 130.093 30.9947 136.039 22.2523 147.416C13.5099 158.793 11.3693 175.332 17.4923 188.394C22.0028 198.016 30.3129 205.176 39.0198 211.002C66.7977 229.588 101.256 237.339 134.044 232.378" fill="#E0E0E0"/>
<path d="M105.402 200.495L105.103 200.521L105.689 200.582L105.402 200.495ZM94.1914 154.342L94.4478 154.186L94.4478 154.186L94.1914 154.342ZM17.4923 188.394L17.7639 188.266L17.7639 188.266L17.4923 188.394ZM39.0198 211.002L38.853 211.251L38.853 211.251L39.0198 211.002ZM132.018 230.576C138.52 224.926 142.477 215.998 141.439 207.289L140.843 207.36C141.856 215.85 137.994 224.589 131.625 230.123L132.018 230.576ZM141.439 207.289C140.401 198.582 133.974 190.557 125.595 188.7L125.465 189.286C133.559 191.08 139.831 198.867 140.843 207.36L141.439 207.289ZM125.595 188.7C117.215 186.842 107.665 191.975 105.115 200.408L105.689 200.582C108.143 192.468 117.371 187.491 125.465 189.286L125.595 188.7ZM105.701 200.469C104.325 184.531 102.738 167.839 94.4478 154.186L93.935 154.498C102.14 168.011 103.725 184.558 105.103 200.521L105.701 200.469ZM94.4478 154.186C86.9361 141.814 73.9231 132.955 59.805 131.369L59.7381 131.965C73.6556 133.529 86.5112 142.271 93.935 154.498L94.4478 154.186ZM59.805 131.369C45.6867 129.783 30.8232 135.77 22.0144 147.233L22.4902 147.599C31.1662 136.308 45.8207 130.402 59.7381 131.965L59.805 131.369ZM22.0144 147.233C13.2068 158.695 11.0479 175.353 17.2206 188.521L17.7639 188.266C11.6907 175.311 13.8129 158.891 22.4902 147.599L22.0144 147.233ZM17.2206 188.521C21.766 198.217 30.1308 205.415 38.853 211.251L39.1866 210.753C30.495 204.937 22.2396 197.814 17.7639 188.266L17.2206 188.521ZM38.853 211.251C66.6926 229.878 101.226 237.647 134.089 232.674L133.999 232.081C101.286 237.031 66.9029 229.297 39.1866 210.753L38.853 211.251Z" fill="#797979" mask="url(#path-3-inside-1_10_1830)"/>
<path d="M36.1143 136.369C47.6808 146.056 58.2918 156.891 67.7939 168.715C77.2974 180.528 85.6643 193.261 92.777 206.735C96.7526 214.293 100.324 222.069 103.475 230.028C104.118 231.647 101.561 232.351 100.926 230.75C95.3441 216.719 88.4386 203.285 80.3082 190.639C72.2173 178.039 62.9568 166.276 52.6568 155.514C46.8311 149.431 40.6845 143.681 34.2448 138.291C32.9248 137.186 34.8053 135.273 36.1143 136.369L36.1143 136.369Z" fill="white"/>
<path d="M276.571 233.357H123.319V71.5074C123.319 37.1195 150.526 9.15 183.958 9.15H215.931C249.364 9.15 276.571 37.1195 276.571 71.5074V233.357Z" fill="#E0E0E0" stroke="#797979" stroke-width="0.3"/>
<path d="M244.748 233.507H123.169V71.5072C123.135 58.3003 127.202 45.4272 134.778 34.7622C135.057 34.3708 135.336 33.9845 135.623 33.6024C139.288 28.6606 143.648 24.3085 148.561 20.6897C148.839 20.4821 149.117 20.278 149.4 20.074C153.511 17.1487 157.958 14.7573 162.64 12.9542C162.918 12.8459 163.201 12.7373 163.484 12.6332C167.719 11.0794 172.108 10.015 176.571 9.45981C176.848 9.42094 177.132 9.39053 177.416 9.36012C181.766 8.88191 186.152 8.88191 190.502 9.36012C190.785 9.39053 191.069 9.42094 191.349 9.46023C195.811 10.0155 200.2 11.0797 204.433 12.6332C204.716 12.7373 204.999 12.8459 205.278 12.9544C209.902 14.7347 214.297 17.0905 218.364 19.969C218.647 20.1686 218.929 20.3727 219.208 20.5767C221.962 22.598 224.549 24.8499 226.942 27.3093C228.861 29.2821 230.649 31.3849 232.295 33.6037C232.581 33.9845 232.86 34.3708 233.139 34.7616C240.714 45.4267 244.782 58.3 244.748 71.5072V233.507Z" fill="#8A8A8A"/>
<path d="M244.248 71.5072V233.007H123.669L123.669 71.5072L123.669 71.5059C123.636 58.4023 127.671 45.6313 135.185 35.0522C135.464 34.662 135.739 34.2798 136.023 33.9029L136.025 33.9002C139.66 28.9981 143.985 24.6814 148.858 21.0923L148.861 21.0901C149.135 20.8848 149.411 20.6828 149.691 20.4804C153.768 17.5797 158.178 15.2085 162.82 13.4208L162.822 13.4201C163.098 13.3123 163.378 13.205 163.657 13.1024C167.855 11.5618 172.208 10.5065 176.633 9.95599L176.633 9.95605L176.641 9.95495C176.908 9.91742 177.184 9.88785 177.469 9.85728L177.471 9.85712C181.784 9.38291 186.134 9.38291 190.447 9.85712L190.448 9.85726L190.453 9.85774C190.736 9.88815 191.011 9.91761 191.28 9.95538L191.28 9.95544L191.287 9.9564C195.712 10.5069 200.063 11.5621 204.26 13.1025C204.539 13.2051 204.819 13.3124 205.096 13.4204L205.098 13.4211C209.683 15.1864 214.042 17.5224 218.075 20.3772L218.076 20.3774C218.355 20.5751 218.636 20.7775 218.913 20.9801C221.644 22.9849 224.21 25.2185 226.584 27.658C228.487 29.6147 230.261 31.7006 231.893 33.9015L231.895 33.9042C232.178 34.2798 232.453 34.662 232.731 35.0515C240.246 45.6308 244.282 58.402 244.248 71.5059V71.5072Z" stroke="black" stroke-opacity="0.5"/>
<path d="M234.862 161.051C238.579 161.051 241.593 157.952 241.593 154.13C241.593 150.307 238.579 147.208 234.862 147.208C231.145 147.208 228.131 150.307 228.131 154.13C228.131 157.952 231.145 161.051 234.862 161.051Z" fill="white"/>
<path d="M264.042 228.555H259.073L256.643 208.3L264.042 208.3L264.042 228.555Z" fill="#FFB8B8" stroke="black" stroke-width="0.2"/>
<path d="M255.3 227.14H265.247V233.58H249.037C249.037 232.734 249.199 231.897 249.514 231.115C249.829 230.334 250.29 229.624 250.871 229.026C251.453 228.428 252.143 227.954 252.903 227.63C253.663 227.306 254.477 227.14 255.3 227.14V227.14Z" fill="#2F2E41"/>
<path d="M289.704 228.555H284.735L282.305 208.3L289.705 208.3L289.704 228.555Z" fill="#FFB8B8" stroke="black" stroke-width="0.2"/>
<path d="M280.962 227.14H290.909V233.58H274.699C274.699 232.734 274.861 231.897 275.176 231.115C275.491 230.334 275.952 229.624 276.534 229.026C277.115 228.428 277.805 227.954 278.565 227.63C279.325 227.306 280.14 227.14 280.962 227.14V227.14Z" fill="#2F2E41"/>
<path d="M240.208 148.738L240.246 148.721L240.26 148.681L257.753 99.1041L266.199 103.843L246.215 151.245L246.2 151.281L246.213 151.318C246.59 152.368 246.58 153.525 246.183 154.568C245.786 155.611 245.032 156.467 244.063 156.975C243.094 157.483 241.978 157.608 240.926 157.327C239.874 157.045 238.958 156.376 238.352 155.446L238.269 155.501L238.352 155.446C237.989 154.896 237.748 154.27 237.645 153.613C237.542 152.957 237.581 152.285 237.758 151.645C237.935 151.006 238.246 150.414 238.67 149.912C239.093 149.409 239.618 149.009 240.208 148.738Z" fill="#FFB8B8" stroke="black" stroke-width="0.2"/>
<path d="M286.03 157.886L286.056 157.853L286.052 157.812L280.632 105.366L290.243 105.817L292.496 157.428L292.498 157.467L292.526 157.495C293.312 158.268 293.795 159.312 293.884 160.428C293.972 161.545 293.659 162.655 293.004 163.55C292.35 164.444 291.399 165.06 290.334 165.281C289.268 165.502 288.16 165.314 287.22 164.752L287.169 164.837L287.22 164.751C286.659 164.421 286.176 163.968 285.804 163.424C285.432 162.881 285.18 162.26 285.066 161.605C284.953 160.95 284.98 160.278 285.147 159.635C285.313 158.992 285.615 158.395 286.03 157.886Z" fill="#FFB8B8" stroke="black" stroke-width="0.2"/>
<path d="M281.739 79.1305C281.739 84.9457 277.155 89.655 271.507 89.655C265.858 89.655 261.274 84.9457 261.274 79.1305C261.274 73.3153 265.858 68.606 271.507 68.606C277.155 68.606 281.739 73.3153 281.739 79.1305Z" fill="#FFB8B8" stroke="black" stroke-width="0.2"/>
<path d="M287.103 152.883H255.952L255.99 152.634C256.046 152.261 261.542 115.242 257.488 103.132C257.082 101.941 257.117 100.639 257.589 99.474C258.06 98.3093 258.934 97.3651 260.042 96.8231H260.042C265.835 94.0177 276.957 90.5632 286.343 98.9467C287.724 100.201 288.803 101.768 289.494 103.524C290.184 105.281 290.468 107.179 290.323 109.067L287.103 152.883Z" fill="#C00000"/>
<path d="M261.935 120.713L247.911 117.788L254.485 101.769C254.878 100.218 255.854 98.8903 257.198 98.0776C258.542 97.2649 260.145 97.0336 261.655 97.4344C263.164 97.8351 264.458 98.8353 265.251 100.215C266.045 101.596 266.274 103.243 265.888 104.796L261.935 120.713Z" fill="#C00000"/>
<path d="M279.897 126.145L279.054 106.272C278.415 102.536 280.494 99.0047 283.693 98.4275C286.893 97.8523 290.017 100.443 290.659 104.207L293.828 122.776L279.897 126.145Z" fill="#C00000"/>
<path d="M270.847 169.474L264.175 221.786L257.503 221.405C257.405 220.169 257.307 218.942 257.21 217.722C256.197 205.002 255.254 193.164 254.911 182.594C254.537 171.064 254.878 161.081 256.606 153.139L285.685 151.033C290.55 170.394 291.109 194.933 289.801 221.747L283.95 220.995L271.829 169.423L270.847 169.474Z" fill="#2F2E41" stroke="black"/>
<path d="M273.054 85.3916L273.054 85.3912C273.037 85.1986 273.039 85.0048 273.058 84.8125C273.104 84.3559 273.231 83.924 273.374 83.4412C273.413 83.3089 273.453 83.1727 273.493 83.0311C273.67 82.3999 273.831 81.6927 273.732 80.9149C273.684 80.4982 273.532 80.0999 273.291 79.758L273.291 79.758L273.287 79.7521C272.797 79.0765 272.13 78.8208 271.443 78.7727C270.787 78.7268 270.079 78.8684 269.454 78.9966C269.433 79.0008 269.413 79.005 269.393 79.0092C268.76 79.1391 268.21 79.2521 267.73 79.2391C267.263 79.2264 266.933 79.096 266.69 78.7754L266.319 79.0561L266.69 78.7754C266.378 78.3639 266.381 77.8083 266.449 77.0035C266.453 76.9527 266.458 76.9006 266.462 76.8475C266.524 76.1491 266.601 75.267 266.209 74.5119C265.629 73.3964 264.481 73.1606 263.496 73.0395C263.291 73.0144 263.097 72.9945 262.907 72.9751C262.601 72.9438 262.307 72.9138 262.003 72.8648C261.529 72.7885 261.116 72.6763 260.772 72.4817L260.526 72.9166L260.772 72.4817C260.038 72.0653 259.652 71.2582 259.606 70.2787C259.559 69.2979 259.863 68.2255 260.414 67.4234C261.8 65.4029 264.258 64.2929 266.732 64.1327C269.209 63.9724 271.696 64.6601 274.083 65.6169C276.798 66.7048 279.405 68.1776 281.008 70.5331C282.954 73.3917 283.163 77.2815 282.165 80.7109C281.876 81.7036 281.225 82.8412 280.428 83.9649C279.636 85.0812 278.725 86.1509 277.945 87.0043C276.298 88.8085 273.266 87.8226 273.054 85.3916Z" fill="#2F2E41" stroke="black"/>
<path d="M354.608 233.312C354.608 233.32 354.605 233.325 354.603 233.327H44.0208C44.0189 233.325 44.0161 233.32 44.0161 233.312C44.0161 233.304 44.0189 233.299 44.0208 233.297H354.603C354.605 233.299 354.608 233.304 354.608 233.312Z" fill="#3F3D56" stroke="black"/>
<path d="M211.303 186.573H156.614C155.894 186.577 155.201 186.287 154.688 185.767C154.176 185.246 153.885 184.538 153.879 183.798V58.2771C153.885 57.5366 154.176 56.8285 154.688 56.3082C155.201 55.788 155.894 55.498 156.614 55.502H211.303C212.024 55.498 212.716 55.788 213.229 56.3082C213.741 56.8285 214.032 57.5366 214.038 58.2771V183.798C214.032 184.538 213.741 185.246 213.229 185.767C212.716 186.287 212.024 186.577 211.303 186.573V186.573Z" fill="white"/>
<path d="M156.614 186.073L156.611 186.073C156.028 186.076 155.464 185.842 155.045 185.416C154.625 184.99 154.384 184.408 154.379 183.796V58.2791C154.384 57.6672 154.625 57.0849 155.045 56.6591C155.464 56.2334 156.028 55.9988 156.611 56.002V56.002H156.614L211.303 56.002L211.306 56.002C211.889 55.9988 212.453 56.2334 212.873 56.6591C213.292 57.0849 213.533 57.6671 213.538 58.279V183.796C213.533 184.408 213.292 184.99 212.873 185.416C212.453 185.842 211.889 186.076 211.306 186.073L211.303 186.573V186.073L156.614 186.073Z" stroke="black" stroke-opacity="0.8"/>
<mask id="path-25-inside-2_10_1830" fill="white">
<path d="M214.038 96.1165H153.879V96.9817H214.038V96.1165Z"/>
</mask>
<path d="M214.038 96.1165H153.879V96.9817H214.038V96.1165Z" fill="#CCCCCC"/>
<path d="M153.879 96.1165V95.1165H152.879V96.1165H153.879ZM214.038 96.1165H215.038V95.1165H214.038V96.1165ZM214.038 96.9817V97.9817H215.038V96.9817H214.038ZM153.879 96.9817H152.879V97.9817H153.879V96.9817ZM153.879 97.1165H214.038V95.1165H153.879V97.1165ZM213.038 96.1165V96.9817H215.038V96.1165H213.038ZM214.038 95.9817H153.879V97.9817H214.038V95.9817ZM154.879 96.9817V96.1165H152.879V96.9817H154.879Z" fill="black" fill-opacity="0.6" mask="url(#path-25-inside-2_10_1830)"/>
<mask id="path-27-inside-3_10_1830" fill="white">
<path d="M214.248 145.478H154.09V146.343H214.248V145.478Z"/>
</mask>
<path d="M214.248 145.478H154.09V146.343H214.248V145.478Z" fill="#CCCCCC"/>
<path d="M154.09 145.478V144.478H153.09V145.478H154.09ZM214.248 145.478H215.248V144.478H214.248V145.478ZM214.248 146.343V147.343H215.248V146.343H214.248ZM154.09 146.343H153.09V147.343H154.09V146.343ZM154.09 146.478H214.248V144.478H154.09V146.478ZM213.248 145.478V146.343H215.248V145.478H213.248ZM214.248 145.343H154.09V147.343H214.248V145.343ZM155.09 146.343V145.478H153.09V146.343H155.09Z" fill="black" fill-opacity="0.6" mask="url(#path-27-inside-3_10_1830)"/>
<mask id="path-29-inside-4_10_1830" fill="white">
<path d="M173.652 55.502H172.81V187.005H173.652V55.502Z"/>
</mask>
<path d="M173.652 55.502H172.81V187.005H173.652V55.502Z" fill="#CCCCCC"/>
<path d="M172.81 55.502V54.502H171.81V55.502H172.81ZM173.652 55.502H174.652V54.502H173.652V55.502ZM173.652 187.005V188.005H174.652V187.005H173.652ZM172.81 187.005H171.81V188.005H172.81V187.005ZM172.81 56.502H173.652V54.502H172.81V56.502ZM172.652 55.502V187.005H174.652V55.502H172.652ZM173.652 186.005H172.81V188.005H173.652V186.005ZM173.81 187.005V55.502H171.81V187.005H173.81Z" fill="black" fill-opacity="0.6" mask="url(#path-29-inside-4_10_1830)"/>
<mask id="path-31-inside-5_10_1830" fill="white">
<path d="M194.686 55.502H193.845V187.005H194.686V55.502Z"/>
</mask>
<path d="M194.686 55.502H193.845V187.005H194.686V55.502Z" fill="#CCCCCC"/>
<path d="M193.845 55.502V54.502H192.845V55.502H193.845ZM194.686 55.502H195.686V54.502H194.686V55.502ZM194.686 187.005V188.005H195.686V187.005H194.686ZM193.845 187.005H192.845V188.005H193.845V187.005ZM193.845 56.502H194.686V54.502H193.845V56.502ZM193.686 55.502V187.005H195.686V55.502H193.686ZM194.686 186.005H193.845V188.005H194.686V186.005ZM194.845 187.005V55.502H192.845V187.005H194.845Z" fill="black" fill-opacity="0.6" mask="url(#path-31-inside-5_10_1830)"/>
<path d="M353 237C353 237.358 352.988 237.698 352.967 238H46.0326C46.012 237.698 46 237.358 46 237C46 236.642 46.012 236.302 46.0326 236H352.967C352.988 236.302 353 236.642 353 237Z" fill="#3F3D56" stroke="#E0E0E0" stroke-width="4"/>
</svg>
